{"accessors":[{"bufferView":1,"componentType":5126,"count":11755,"max":[3.1026198863983154,1.0211399793624878,3.597759962081909],"min":[-3.093090057373047,-2.0987000465393066,-10.025130271911621],"type":"VEC3"},{"bufferView":1,"byteOffset":141060,"componentType":5126,"count":11755,"max":[0.9996365308761597,0.999883234500885,0.9999558329582214],"min":[-0.9998742938041687,-0.9999890923500061,-0.9999520182609558],"type":"VEC3"},{"bufferView":0,"componentType":5125,"count":43488,"type":"SCALAR"},{"bufferView":1,"byteOffset":282120,"componentType":5126,"count":12715,"max":[2.483880043029785,1.2702000141143799,1.9190700054168701],"min":[-1.9118599891662598,-2.3203799724578857,-1.8006099462509155],"type":"VEC3"},{"bufferView":1,"byteOffset":434700,"componentType":5126,"count":12715,"max":[0.9998971819877625,0.9999967813491821,0.9999767541885376],"min":[-0.9995861053466797,-0.9999967813491821,-0.999976634979248],"type":"VEC3"},{"bufferView":0,"byteOffset":173952,"componentType":5125,"count":21510,"type":"SCALAR"},{"bufferView":1,"byteOffset":587280,"componentType":5126,"count":1092,"max":[1.077139973640442,1.0754799842834473,1.0419299602508545],"min":[-4.1226301193237305,-1.0397700071334839,-1.135159969329834],"type":"VEC3"},{"bufferView":1,"byteOffset":600384,"componentType":5126,"count":1092,"max":[0.9999991059303284,0.9998670220375061,0.9975607395172119],"min":[-0.9988545179367065,-0.9981076121330261,-0.9924619197845459],"type":"VEC3"},{"bufferView":0,"byteOffset":259992,"componentType":5125,"count":6156,"type":"SCALAR"},{"bufferView":1,"byteOffset":613488,"componentType":5126,"count":964,"max":[9.588709831237793,1,1],"min":[-1,-1,-1],"type":"VEC3"},{"bufferView":1,"byteOffset":625056,"componentType":5126,"count":964,"max":[1,1,1],"min":[-1,-1,-1],"type":"VEC3"},{"bufferView":0,"byteOffset":284616,"componentType":5125,"count":5760,"type":"SCALAR"},{"bufferView":1,"byteOffset":636624,"componentType":5126,"count":964,"max":[16.191640853881836,1,1],"min":[-1,-1,-1],"type":"VEC3"},{"bufferView":1,"byteOffset":648192,"componentType":5126,"count":964,"max":[1,1,1],"min":[-1,-1,-1],"type":"VEC3"},{"bufferView":0,"byteOffset":307656,"componentType":5125,"count":5760,"type":"SCALAR"},{"bufferView":1,"byteOffset":659760,"componentType":5126,"count":2793,"max":[1.7335400581359863,2.028320074081421,4.559689998626709],"min":[-1.5630199909210205,-0.05854000151157379,-1.2757500410079956],"type":"VEC3"},{"bufferView":1,"byteOffset":693276,"componentType":5126,"count":2793,"max":[0.9968019127845764,0.9996023178100586,0.9999050498008728],"min":[-0.9877760410308838,-0.9825624823570251,-0.9999883770942688],"type":"VEC3"},{"bufferView":0,"byteOffset":330696,"componentType":5125,"count":13974,"type":"SCALAR"},{"bufferView":1,"byteOffset":726792,"componentType":5126,"count":2073,"max":[13.2427396774292,30.46710968017578,3.355259895324707],"min":[-13.421629905700684,-1.8857100009918213,-10.744790077209473],"type":"VEC3"},{"bufferView":1,"byteOffset":751668,"componentType":5126,"count":2073,"max":[1,1,0.957525372505188],"min":[-1,-1,-1],"type":"VEC3"},{"bufferView":0,"byteOffset":386592,"componentType":5125,"count":6624,"type":"SCALAR"},{"bufferView":1,"byteOffset":776544,"componentType":5126,"count":84,"max":[2.109070062637329,-1.0174200534820557,0.1368899941444397],"min":[-2.1144700050354004,-5.656829833984375,-2.417520046234131],"type":"VEC3"},{"bufferView":1,"byteOffset":777552,"componentType":5126,"count":84,"max":[0.9694937467575073,0.9851246476173401,0.9830023646354675],"min":[-0.977971613407135,-0.987119197845459,-0.9914266467094421],"type":"VEC3"},{"bufferView":0,"byteOffset":413088,"componentType":5125,"count":492,"type":"SCALAR"},{"bufferView":1,"byteOffset":778560,"componentType":5126,"count":2084,"max":[41.05569076538086,3.1774399280548096,41.521690368652344],"min":[-13.046870231628418,-27.048839569091797,-5.430620193481445],"type":"VEC3"},{"bufferView":1,"byteOffset":803568,"componentType":5126,"count":2084,"max":[0.9998944401741028,0.8752280473709106,1],"min":[-0.9997711777687073,-0.9981452226638794,-1],"type":"VEC3"},{"bufferView":0,"byteOffset":415056,"componentType":5125,"count":12240,"type":"SCALAR"},{"bufferView":1,"byteOffset":828576,"componentType":5126,"count":9211,"max":[22.59324073791504,6.119959831237793,1.624650001525879],"min":[-23.827669143676758,-10.536589622497559,-72.46845245361328],"type":"VEC3"},{"bufferView":1,"byteOffset":939108,"componentType":5126,"count":9211,"max":[1,1,1],"min":[-1,-1,-1],"type":"VEC3"},{"bufferView":0,"byteOffset":464016,"componentType":5125,"count":48114,"type":"SCALAR"},{"bufferView":1,"byteOffset":1049640,"componentType":5126,"count":417,"max":[40.67253112792969,0.9183300137519836,-3.457890033721924],"min":[32.13645935058594,-2.4231600761413574,-4.812719821929932],"type":"VEC3"},{"bufferView":1,"byteOffset":1054644,"componentType":5126,"count":417,"max":[0.924768328666687,0.9954331517219543,0.9991011023521423],"min":[-0.924768328666687,-0.9765878319740295,-0.9796057939529419],"type":"VEC3"},{"bufferView":0,"byteOffset":656472,"componentType":5125,"count":2304,"type":"SCALAR"},{"bufferView":1,"byteOffset":1059648,"componentType":5126,"count":91,"max":[0.8181800246238708,1.4943300485610962,0.6433500051498413],"min":[-0.9594200253486633,1.2049200534820557,-1.4608999490737915],"type":"VEC3"},{"bufferView":1,"byteOffset":1060740,"componentType":5126,"count":91,"max":[0.4936778247356415,0.9921165704727173,0.4140211343765259],"min":[-0.47137343883514404,0.3325946629047394,-0.9261629581451416],"type":"VEC3"},{"bufferView":0,"byteOffset":665688,"componentType":5125,"count":372,"type":"SCALAR"},{"bufferView":1,"byteOffset":1061832,"componentType":5126,"count":482,"max":[1,1,1],"min":[-1,-1,-1],"type":"VEC3"},{"bufferView":1,"byteOffset":1067616,"componentType":5126,"count":482,"max":[1,1,1],"min":[-1,-1,-1],"type":"VEC3"},{"bufferView":0,"byteOffset":667176,"componentType":5125,"count":2880,"type":"SCALAR"},{"bufferView":1,"byteOffset":1073400,"componentType":5126,"count":482,"max":[1,1,1],"min":[-1,-1,-1],"type":"VEC3"},{"bufferView":1,"byteOffset":1079184,"componentType":5126,"count":482,"max":[1,1,1],"min":[-1,-1,-1],"type":"VEC3"},{"bufferView":0,"byteOffset":678696,"componentType":5125,"count":2880,"type":"SCALAR"},{"bufferView":1,"byteOffset":1084968,"componentType":5126,"count":72,"max":[1.220170021057129,-0.994979977607727,5.06043004989624],"min":[-5.921939849853516,-6.377860069274902,-2.6586201190948486],"type":"VEC3"},{"bufferView":1,"byteOffset":1085832,"componentType":5126,"count":72,"max":[0.9589141607284546,0.9068468809127808,0.9269587993621826],"min":[-0.9203006625175476,-0.9952048063278198,-0.9522594213485718],"type":"VEC3"},{"bufferView":0,"byteOffset":690216,"componentType":5125,"count":360,"type":"SCALAR"},{"bufferView":1,"byteOffset":1086696,"componentType":5126,"count":4820,"max":[15.371910095214844,2.440880060195923,12.768879890441895],"min":[-1,-9.418339729309082,-6.439970016479492],"type":"VEC3"},{"bufferView":1,"byteOffset":1144536,"componentType":5126,"count":4820,"max":[1,1,1],"min":[-1,-1,-1],"type":"VEC3"},{"bufferView":0,"byteOffset":691656,"componentType":5125,"count":28800,"type":"SCALAR"},{"bufferView":1,"byteOffset":1202376,"componentType":5126,"count":11911,"max":[0.9529200196266174,20.48164939880371,0.6857200264930725],"min":[-4.851409912109375,9.0635404586792,-7.652989864349365],"type":"VEC3"},{"bufferView":1,"byteOffset":1345308,"componentType":5126,"count":11911,"max":[0.999886691570282,0.9997732043266296,0.9999871850013733],"min":[-0.9998874068260193,-0.9997687935829163,-0.9984955787658691],"type":"VEC3"},{"bufferView":0,"byteOffset":806856,"componentType":5125,"count":20664,"type":"SCALAR"},{"bufferView":1,"byteOffset":1488240,"componentType":5126,"count":4820,"max":[110.94793701171875,4.906680107116699,9.936750411987305],"min":[97.97044372558594,-1.5204800367355347,-4.548019886016846],"type":"VEC3"},{"bufferView":1,"byteOffset":1546080,"componentType":5126,"count":4820,"max":[1,1,1],"min":[-1,-1,-1],"type":"VEC3"},{"bufferView":0,"byteOffset":889512,"componentType":5125,"count":28800,"type":"SCALAR"},{"bufferView":1,"byteOffset":1603920,"componentType":5126,"count":128,"max":[-11.126049995422363,9.099940299987793,9.184789657592773],"min":[-25.518159866333008,5.955520153045654,2.989919900894165],"type":"VEC3"},{"bufferView":1,"byteOffset":1605456,"componentType":5126,"count":128,"max":[0.9999595284461975,0.9898044466972351,0.181654155254364],"min":[-0.9999595284461975,-0.9898044466972351,-0.181654155254364],"type":"VEC3"},{"bufferView":0,"byteOffset":1004712,"componentType":5125,"count":384,"type":"SCALAR"},{"bufferView":1,"byteOffset":1606992,"componentType":5126,"count":1928,"max":[6.460999965667725,1,1],"min":[-1.1728899478912354,-1,-7.875810146331787],"type":"VEC3"},{"bufferView":1,"byteOffset":1630128,"componentType":5126,"count":1928,"max":[1,1,1],"min":[-1,-1,-1],"type":"VEC3"},{"bufferView":0,"byteOffset":1006248,"componentType":5125,"count":11520,"type":"SCALAR"}],"asset":{"extras":{"author":"ann55010970637 (https://sketchfab.com/ann55010970637)","license":"CC-BY-4.0 (http://creativecommons.org/licenses/by/4.0/)","source":"https://sketchfab.com/3d-models/nightmare-bonnie-b1a2f6eeae9a42698cb45b14849d9eaa","title":"Nightmare Bonnie"},"generator":"Sketchfab-12.66.0","version":"2.0"},"bufferViews":[{"buffer":0,"byteLength":1052328,"name":"floatBufferViews","target":34963},{"buffer":0,"byteLength":1653264,"byteOffset":1052328,"byteStride":12,"name":"floatBufferViews","target":34962}],"buffers":[{"byteLength":2705592,"uri":"data:application/octet-stream;base64,"}],"extensionsRequired":["KHR_materials_pbrSpecularGlossiness"],"extensionsUsed":["KHR_materials_pbrSpecularGlossiness"],"materials":[{"doubleSided":true,"extensions":{"KHR_materials_pbrSpecularGlossiness":{"diffuseFactor":[0.180392,0.235294,0.639216,1],"glossinessFactor":0,"specularFactor":[0.501961,0.501961,0.501961]}},"name":"material_0"},{"doubleSided":true,"extensions":{"KHR_materials_pbrSpecularGlossiness":{"diffuseFactor":[0.0352941,0.0352941,0.0352941,1],"glossinessFactor":0,"specularFactor":[0.501961,0.501961,0.501961]}},"name":"material_1"},{"doubleSided":true,"extensions":{"KHR_materials_pbrSpecularGlossiness":{"diffuseFactor":[0.231373,0.231373,0.231373,1],"glossinessFactor":0,"specularFactor":[0.501961,0.501961,0.501961]}},"name":"material_2"},{"doubleSided":true,"extensions":{"KHR_materials_pbrSpecularGlossiness":{"diffuseFactor":[0.639216,0.0862745,0.309804,1],"glossinessFactor":0,"specularFactor":[0.501961,0.501961,0.501961]}},"name":"material_3"},{"doubleSided":true,"extensions":{"KHR_materials_pbrSpecularGlossiness":{"diffuseFactor":[0.8,0.8,0.8,1],"glossinessFactor":0,"specularFactor":[0.501961,0.501961,0.501961]}},"name":"material_4"},{"doubleSided":true,"extensions":{"KHR_materials_pbrSpecularGlossiness":{"diffuseFactor":[0.415686,0.54902,0.639216,1],"glossinessFactor":0,"specularFactor":[0.501961,0.501961,0.501961]}},"name":"material_5"},{"doubleSided":true,"extensions":{"KHR_materials_pbrSpecularGlossiness":{"diffuseFactor":[0.235294,0.235294,0.235294,1],"glossinessFactor":0,"specularFactor":[0.501961,0.501961,0.501961]}},"name":"material_6"},{"doubleSided":true,"extensions":{"KHR_materials_pbrSpecularGlossiness":{"diffuseFactor":[0.0627451,0.0627451,0.0627451,1],"glossinessFactor":0,"specularFactor":[0.501961,0.501961,0.501961]}},"name":"material_7"},{"doubleSided":true,"extensions":{"KHR_materials_pbrSpecularGlossiness":{"diffuseFactor":[0.109804,0.109804,0.109804,1],"glossinessFactor":0,"specularFactor":[0.501961,0.501961,0.501961]}},"name":"material_8"},{"doubleSided":true,"extensions":{"KHR_materials_pbrSpecularGlossiness":{"diffuseFactor":[0.329412,0.329412,0.329412,1],"glossinessFactor":0,"specularFactor":[0.501961,0.501961,0.501961]}},"name":"material_9"},{"doubleSided":true,"extensions":{"KHR_materials_pbrSpecularGlossiness":{"diffuseFactor":[0.639216,0.0117647,0.0235294,1],"glossinessFactor":0,"specularFactor":[0.501961,0.501961,0.501961]}},"name":"material_10"},{"doubleSided":true,"extensions":{"KHR_materials_pbrSpecularGlossiness":{"diffuseFactor":[0.333333,0.639216,0.623529,1],"glossinessFactor":0,"specularFactor":[0.501961,0.501961,0.501961]}},"name":"material_11"},{"doubleSided":true,"extensions":{"KHR_materials_pbrSpecularGlossiness":{"diffuseFactor":[0.0352941,0.0352941,0.0352941,1],"glossinessFactor":0,"specularFactor":[0.501961,0.501961,0.501961]}},"name":"material_12"},{"doubleSided":true,"extensions":{"KHR_materials_pbrSpecularGlossiness":{"diffuseFactor":[0.196078,0.196078,0.196078,1],"glossinessFactor":0,"specularFactor":[0.501961,0.501961,0.501961]}},"name":"material_13"},{"doubleSided":true,"extensions":{"KHR_materials_pbrSpecularGlossiness":{"diffuseFactor":[0.0509804,0.0509804,0.0509804,1],"glossinessFactor":0,"specularFactor":[0.501961,0.501961,0.501961]}},"name":"material_14"},{"doubleSided":true,"extensions":{"KHR_materials_pbrSpecularGlossiness":{"diffuseFactor":[0.47451,0.47451,0.47451,1],"glossinessFactor":0,"specularFactor":[0.501961,0.501961,0.501961]}},"name":"material_15"},{"doubleSided":true,"extensions":{"KHR_materials_pbrSpecularGlossiness":{"diffuseFactor":[0.109804,0.109804,0.109804,1],"glossinessFactor":0,"specularFactor":[0.501961,0.501961,0.501961]}},"name":"material_16"},{"doubleSided":true,"extensions":{"KHR_materials_pbrSpecularGlossiness":{"diffuseFactor":[0.247059,0.247059,0.247059,1],"glossinessFactor":0,"specularFactor":[0.501961,0.501961,0.501961]}},"name":"material_17"},{"doubleSided":true,"extensions":{"KHR_materials_pbrSpecularGlossiness":{"diffuseFactor":[0.0823529,0.0823529,0.0823529,1],"glossinessFactor":0,"specularFactor":[0.501961,0.501961,0.501961]}},"name":"material_18"}],"meshes":[{"name":"Object_0","primitives":[{"attributes":{"NORMAL":1,"POSITION":0},"indices":2,"material":0,"mode":4}]},{"name":"Object_1","primitives":[{"attributes":{"NORMAL":4,"POSITION":3},"indices":5,"material":1,"mode":4}]},{"name":"Object_2","primitives":[{"attributes":{"NORMAL":7,"POSITION":6},"indices":8,"material":2,"mode":4}]},{"name":"Object_3","primitives":[{"attributes":{"NORMAL":10,"POSITION":9},"indices":11,"material":3,"mode":4}]},{"name":"Object_4","primitives":[{"attributes":{"NORMAL":13,"POSITION":12},"indices":14,"material":4,"mode":4}]},{"name":"Object_5","primitives":[{"attributes":{"NORMAL":16,"POSITION":15},"indices":17,"material":5,"mode":4}]},{"name":"Object_6","primitives":[{"attributes":{"NORMAL":19,"POSITION":18},"indices":20,"material":6,"mode":4}]},{"name":"Object_7","primitives":[{"attributes":{"NORMAL":22,"POSITION":21},"indices":23,"material":7,"mode":4}]},{"name":"Object_8","primitives":[{"attributes":{"NORMAL":25,"POSITION":24},"indices":26,"material":8,"mode":4}]},{"name":"Object_9","primitives":[{"attributes":{"NORMAL":28,"POSITION":27},"indices":29,"material":9,"mode":4}]},{"name":"Object_10","primitives":[{"attributes":{"NORMAL":31,"POSITION":30},"indices":32,"material":10,"mode":4}]},{"name":"Object_11","primitives":[{"attributes":{"NORMAL":34,"POSITION":33},"indices":35,"material":11,"mode":4}]},{"name":"Object_12","primitives":[{"attributes":{"NORMAL":37,"POSITION":36},"indices":38,"material":12,"mode":4}]},{"name":"Object_13","primitives":[{"attributes":{"NORMAL":40,"POSITION":39},"indices":41,"material":12,"mode":4}]},{"name":"Object_14","primitives":[{"attributes":{"NORMAL":43,"POSITION":42},"indices":44,"material":13,"mode":4}]},{"name":"Object_15","primitives":[{"attributes":{"NORMAL":46,"POSITION":45},"indices":47,"material":14,"mode":4}]},{"name":"Object_16","primitives":[{"attributes":{"NORMAL":49,"POSITION":48},"indices":50,"material":15,"mode":4}]},{"name":"Object_17","primitives":[{"attributes":{"NORMAL":52,"POSITION":51},"indices":53,"material":16,"mode":4}]},{"name":"Object_18","primitives":[{"attributes":{"NORMAL":55,"POSITION":54},"indices":56,"material":17,"mode":4}]},{"name":"Object_19","primitives":[{"attributes":{"NORMAL":58,"POSITION":57},"indices":59,"material":18,"mode":4}]}],"nodes":[{"children":[1],"matrix":[1,0,0,0,0,2.220446049250313e-16,-1,0,0,1,2.220446049250313e-16,0,0,0,0,1],"name":"Sketchfab_model"},{"children":[2],"name":"root"},{"children":[3],"matrix":[1,0,0,0,0,2.220446049250313e-16,1,0,0,-1,2.220446049250313e-16,0,0,0,0,1],"name":"GLTF_SceneRootNode"},{"children":[4],"matrix":[1,0,0,0,0,1.685873868828936e-7,-0.9999999403953409,0,0,0.9999999403953409,1.685873868828936e-7,0,0,0,0,1],"name":"RootNode (gltf orientation matrix)_0"},{"children":[5],"name":"RootNode (model correction matrix)_1"},{"children":[6,10,14,18,22,26,30,34,38,42,46,50,54,58,62,66,70,74,78,82],"name":"Root_2"},{"children":[7],"matrix":[0.778859756510802,-0.0452324419474605,-0.006259528819992288,0,0.04553755117819173,0.7773201804687806,0.049089331471650836,0,0.003390470261314893,-0.04937067197647796,0.7786299953922078,0,2.7455201148986816,0.027370000258088112,8.005200386047363,1],"name":"Circle_5"},{"children":[8],"name":"Geode_6"},{"children":[9],"name":"Circle_7"},{"mesh":0,"name":"Object_9"},{"children":[11],"matrix":[0.4561599344396423,-0.02649046477168044,-0.00367018442501488,0,0.026669531359420157,0.4552598527479677,0.02875239308122554,0,0.00198981494868462,-0.02891760571897078,0.4560301277263338,0,2.7873098850250244,0.10312999784946442,8.077710151672363,1],"name":"Plane_8"},{"children":[12],"name":"Geode_9"},{"children":[13],"name":"Plane_10"},{"mesh":1,"name":"Object_13"},{"children":[15],"matrix":[0.1949495680049051,-0.011327331812682901,-0.0015695695722565506,0,0.0013073351948850699,-0.00455204030645083,0.19522989478942432,0,-0.01136042742876261,-0.19490001597437512,-0.004468274916490727,0,3.025399923324585,-0.4089300036430359,8.592619895935059,1],"name":"Sphere_11"},{"children":[16],"name":"Geode_12"},{"children":[17],"name":"Sphere_13"},{"mesh":2,"name":"Object_17"},{"children":[19],"matrix":[0.06960009990936172,-0.004038251415282989,-0.0005602764869284408,0,0.00046825044944890173,-0.0015999502207770867,0.0697000145798912,0,-0.004049724402111244,-0.06958001521470777,-0.0015699892760794754,0,2.420229911804199,-0.4788999855518341,8.59514045715332,1],"name":"Sphere.001_14"},{"children":[20],"name":"Geode_15"},{"children":[21],"name":"Sphere.001_16"},{"mesh":3,"name":"Object_21"},{"children":[23],"matrix":[0.0394796767910275,-0.002295239018193029,-0.00032214519219313497,0,0.00021523782013103555,-0.0018431112005250709,0.039509825453678,0,-0.0023078569772177373,-0.03944024705265804,-0.0018272928862701008,0,2.4174599647521973,-0.5262100100517273,8.59214973449707,1],"name":"Sphere.002_17"},{"children":[24],"name":"Geode_18"},{"children":[25],"name":"Sphere.002_19"},{"mesh":4,"name":"Object_25"},{"children":[27],"matrix":[0.5782097840720851,-0.03360247812627581,-0.004491015206790307,0,0.033807521766706226,0.5772302638452932,0.03372790762868565,0,0.0025189852014017504,-0.03393209502531477,0.5781998614308811,0,2.764470100402832,-1.0350199937820435,7.743539810180664,1],"name":"Circle.001_20"},{"children":[28],"name":"Geode_21"},{"children":[29],"name":"Circle.001_22"},{"mesh":5,"name":"Object_29"},{"children":[31],"matrix":[0.04269000142812729,0,0,0,0,0.04269000142812729,0,0,0,0,0.04269000142812729,0,2.7643799781799316,-0.6686000227928162,7.802090167999268,1],"name":"Circle.002_23"},{"children":[32],"name":"Geode_24"},{"children":[33],"name":"Circle.002_25"},{"mesh":6,"name":"Object_33"},{"children":[35],"matrix":[0.07537999749183655,0,0,0,0,0.07537999749183655,0,0,0,0,0.07537999749183655,0,2.740540027618408,-0.5242199897766113,8.427550315856934,1],"name":"Cube_26"},{"children":[36],"name":"Geode_27"},{"children":[37],"name":"Cube_28"},{"mesh":7,"name":"Object_37"},{"children":[39],"matrix":[0.020330002404845487,0,0.037359998817358214,0,0,0.04253999888896942,0,0,-0.037359998817358214,0,0.020330002404845487,0,3.194040060043335,0.03172000125050545,9.139710426330566,1],"name":"Cylinder_29"},{"children":[40],"name":"Geode_30"},{"children":[41],"name":"Cylinder_31"},{"mesh":8,"name":"Object_41"},{"children":[43],"matrix":[0.09881000220775604,0,0,0,0,0.09881000220775604,0,0,0,0,0.09881000220775604,0,2.7657299041748047,0.07705999910831451,7.281449794769287,1],"name":"Sphere.003_32"},{"children":[44],"name":"Geode_33"},{"children":[45],"name":"Sphere.003_34"},{"mesh":9,"name":"Object_45"},{"children":[47],"matrix":[0.11051999777555466,0,0,0,0,-0.012269999533479245,0.10983999811922292,0,0,-0.10983999811922292,-0.012269999533479245,0,-1.2316299676895142,-1.1674200296401978,6.858789920806885,1],"name":"Circle.003_37"},{"children":[48],"name":"Geode_38"},{"children":[49],"name":"Circle.003_39"},{"mesh":10,"name":"Object_49"},{"children":[51],"matrix":[1.0207698711725093,0.03164064937197417,-0.00013310982411123635,0,-0.03162934722392928,1.0202699932915453,-0.03215065894062718,0,-0.0008631098266180295,0.03213934331729429,1.020760017756849,0,2.834399938583374,-1.9377599954605103,6.412179946899414,1],"name":"Circle.004_40"},{"children":[52],"name":"Geode_41"},{"children":[53],"name":"Circle.004_42"},{"mesh":11,"name":"Object_53"},{"children":[55],"matrix":[0.14127999544143677,0,0,0,0,0.14127999544143677,0,0,0,0,0.14127999544143677,0,0.6820899844169617,0.09774000197649002,4.761459827423096,1],"name":"Sphere.004_43"},{"children":[56],"name":"Geode_44"},{"children":[57],"name":"Sphere.004_45"},{"mesh":12,"name":"Object_57"},{"children":[59],"matrix":[0.14127999544143677,0,0,0,0,0.14127999544143677,0,0,0,0,0.14127999544143677,0,4.703949928283691,0.09774000197649002,4.761459827423096,1],"name":"Sphere.005_46"},{"children":[60],"name":"Geode_47"},{"children":[61],"name":"Sphere.005_48"},{"mesh":13,"name":"Object_61"},{"children":[63],"matrix":[0.2528899728187609,0,-0.1081899904744871,0,0,0.2750599980354309,0,0,0.1081899904744871,0,0.2528899728187609,0,3.314769983291626,0.4754300117492676,9.43727970123291,1],"name":"Cube.001_49"},{"children":[64],"name":"Geode_50"},{"children":[65],"name":"Cube.001_51"},{"mesh":14,"name":"Object_65"},{"children":[67],"matrix":[0.057020001113414764,0,0,0,0,0.057020001113414764,0,0,0,0,0.057020001113414764,0,0.3315100073814392,0.28453999757766724,3.746229887008667,1],"name":"Sphere.006_52"},{"children":[68],"name":"Geode_53"},{"children":[69],"name":"Sphere.006_54"},{"mesh":15,"name":"Object_69"},{"children":[71],"matrix":[-0.04739887477996165,0.06338853625446325,0.3489304203447754,0,-0.3049299868828787,-0.18702011937503324,-0.0074467759074463,0,0.1810674642835903,-0.29836197816674226,0.07879829769244909,0,7.685100078582764,2.106410026550293,4.950980186462402,1],"name":"Plane.002_55"},{"children":[72],"name":"Geode_56"},{"children":[73],"name":"Plane.002_57"},{"mesh":16,"name":"Object_73"},{"children":[75],"matrix":[0.07225000113248825,0,0,0,0,0.07225000113248825,0,0,0,0,0.07225000113248825,0,-2.908989906311035,-0.15417000651359558,3.746299982070923,1],"name":"Sphere.007_58"},{"children":[76],"name":"Geode_59"},{"children":[77],"name":"Sphere.007_60"},{"mesh":17,"name":"Object_77"},{"children":[79],"matrix":[0.0707399994134903,0,0,0,0,0.0707399994134903,0,0,0,0,0.0707399994134903,0,4.046529769897461,-0.04738999903202057,7.397339820861816,1],"name":"Circle.005_61"},{"children":[80],"name":"Geode_62"},{"children":[81],"name":"Circle.005_63"},{"mesh":18,"name":"Object_81"},{"children":[83],"matrix":[0.2436700016260147,0,0,0,0,0.2436700016260147,0,0,0,0,0.2436700016260147,0,2.1098999977111816,0.1573600023984909,4.257339954376221,1],"name":"Sphere.008_64"},{"children":[84],"name":"Geode_65"},{"children":[85],"name":"Sphere.008_66"},{"mesh":19,"name":"Object_85"}],"scene":0,"scenes":[{"name":"Sketchfab_Scene","nodes":[0]}]}